<svg width="10" height="11" viewBox="0 0 10 11" fill="none" xmlns="http://www.w3.org/2000/svg">
<path d="M7.54324 4.57007L4.71886 7.39446C4.69263 7.42072 4.66148 7.44155 4.62719 7.45576C4.5929 7.46997 4.55615 7.47729 4.51903 7.47729C4.48191 7.47729 4.44516 7.46997 4.41087 7.45576C4.37659 7.44155 4.34544 7.42072 4.31921 7.39446L1.49482 4.57007C1.44182 4.51707 1.41205 4.44519 1.41205 4.37024C1.41205 4.29529 1.44182 4.22341 1.49482 4.17042C1.54782 4.11742 1.6197 4.08765 1.69464 4.08765C1.76959 4.08765 1.84147 4.11742 1.89447 4.17042L4.51903 6.79533L7.14359 4.17042C7.16984 4.14418 7.20099 4.12336 7.23527 4.10916C7.26956 4.09496 7.30631 4.08765 7.34342 4.08765C7.38053 4.08765 7.41728 4.09496 7.45156 4.10916C7.48585 4.12336 7.517 4.14418 7.54324 4.17042C7.56949 4.19666 7.5903 4.22781 7.6045 4.2621C7.61871 4.29638 7.62602 4.33313 7.62602 4.37024C7.62602 4.40735 7.61871 4.4441 7.6045 4.47839C7.5903 4.51267 7.56949 4.54383 7.54324 4.57007Z" fill="#DE504B"/>
</svg>
