<svg width="13" height="13" viewBox="0 0 13 13" fill="none" xmlns="http://www.w3.org/2000/svg">
<path d="M10.4437 5.4002L6.78743 1.74395C6.7497 1.70618 6.7049 1.67621 6.65558 1.65577C6.60626 1.63533 6.5534 1.6248 6.50001 1.6248C6.44662 1.6248 6.39376 1.63533 6.34444 1.65577C6.29512 1.67621 6.25032 1.70618 6.21259 1.74395L2.55634 5.4002C2.48011 5.47643 2.43729 5.57982 2.43729 5.68762C2.43729 5.79543 2.48011 5.89882 2.55634 5.97504C2.63257 6.05127 2.73596 6.0941 2.84376 6.0941C2.95157 6.0941 3.05496 6.05127 3.13118 5.97504L6.09376 3.01196V10.9689C6.09376 11.0766 6.13656 11.1799 6.21275 11.2561C6.28894 11.3323 6.39227 11.3751 6.50001 11.3751C6.60776 11.3751 6.71109 11.3323 6.78727 11.2561C6.86346 11.1799 6.90626 11.0766 6.90626 10.9689V3.01196L9.86884 5.97504C9.94507 6.05127 10.0485 6.0941 10.1563 6.0941C10.2641 6.0941 10.3675 6.05127 10.4437 5.97504C10.5199 5.89882 10.5627 5.79543 10.5627 5.68762C10.5627 5.57982 10.5199 5.47643 10.4437 5.4002Z" fill="#F6F6F6"/>
</svg>
