<svg width="14" height="13" viewBox="0 0 14 13" fill="none" xmlns="http://www.w3.org/2000/svg">
<path d="M10.9437 7.5998L7.2874 11.2561C7.24967 11.2938 7.20487 11.3238 7.15555 11.3442C7.10623 11.3647 7.05337 11.3752 6.99998 11.3752C6.94659 11.3752 6.89373 11.3647 6.84441 11.3442C6.79509 11.3238 6.75029 11.2938 6.71256 11.2561L3.05631 7.5998C2.98008 7.52357 2.93726 7.42018 2.93726 7.31238C2.93726 7.20457 2.98008 7.10118 3.05631 7.02496C3.13254 6.94873 3.23593 6.9059 3.34373 6.9059C3.45154 6.9059 3.55492 6.94873 3.63115 7.02496L6.59373 9.98804V2.03113C6.59373 1.92338 6.63653 1.82005 6.71272 1.74387C6.78891 1.66768 6.89224 1.62488 6.99998 1.62488C7.10773 1.62488 7.21106 1.66768 7.28724 1.74387C7.36343 1.82005 7.40623 1.92338 7.40623 2.03113V9.98804L10.3688 7.02496C10.445 6.94873 10.5484 6.9059 10.6562 6.9059C10.764 6.9059 10.8674 6.94873 10.9437 7.02496C11.0199 7.10118 11.0627 7.20457 11.0627 7.31238C11.0627 7.42018 11.0199 7.52357 10.9437 7.5998Z" fill="#F6F6F6"/>
</svg>
