<svg width="12" height="11" viewBox="0 0 12 11" fill="none" xmlns="http://www.w3.org/2000/svg">
<path d="M10.0842 3.32338L8.20417 1.44297C8.14165 1.38043 8.06743 1.33083 7.98574 1.29699C7.90405 1.26315 7.81649 1.24573 7.72807 1.24573C7.63965 1.24573 7.55209 1.26315 7.4704 1.29699C7.38871 1.33083 7.31449 1.38043 7.25197 1.44297L2.06349 6.63187C2.0007 6.69416 1.95092 6.76831 1.91704 6.85001C1.88316 6.9317 1.86586 7.01932 1.86615 7.10776V8.98817C1.86615 9.16672 1.93707 9.33796 2.06333 9.46422C2.18958 9.59047 2.36082 9.6614 2.53937 9.6614H4.41979C4.50823 9.66168 4.59584 9.64438 4.67754 9.61051C4.75924 9.57663 4.83338 9.52685 4.89567 9.46406L10.0842 4.27557C10.1467 4.21306 10.1963 4.13883 10.2301 4.05714C10.264 3.97545 10.2814 3.8879 10.2814 3.79948C10.2814 3.71105 10.264 3.6235 10.2301 3.54181C10.1963 3.46012 10.1467 3.38589 10.0842 3.32338ZM4.41979 8.98817H2.53937V7.10776L6.24213 3.40501L8.12254 5.28542L4.41979 8.98817ZM8.59843 4.80911L6.71802 2.92912L7.72786 1.91927L9.60827 3.79927L8.59843 4.80911Z" fill="#5D5D5D"/>
</svg>
