<svg width="25" height="25" viewBox="0 0 25 25" fill="none" xmlns="http://www.w3.org/2000/svg">
<path d="M21.2208 12.5C21.2208 12.6989 21.1417 12.8897 21.0011 13.0303C20.8604 13.171 20.6697 13.25 20.4708 13.25H3.97076C3.77185 13.25 3.58109 13.171 3.44043 13.0303C3.29978 12.8897 3.22076 12.6989 3.22076 12.5C3.22076 12.3011 3.29978 12.1103 3.44043 11.9697C3.58109 11.829 3.77185 11.75 3.97076 11.75H20.4708C20.6697 11.75 20.8604 11.829 21.0011 11.9697C21.1417 12.1103 21.2208 12.3011 21.2208 12.5ZM3.97076 7.25H20.4708C20.6697 7.25 20.8604 7.17098 21.0011 7.03033C21.1417 6.88968 21.2208 6.69891 21.2208 6.5C21.2208 6.30109 21.1417 6.11032 21.0011 5.96967C20.8604 5.82902 20.6697 5.75 20.4708 5.75H3.97076C3.77185 5.75 3.58109 5.82902 3.44043 5.96967C3.29978 6.11032 3.22076 6.30109 3.22076 6.5C3.22076 6.69891 3.29978 6.88968 3.44043 7.03033C3.58109 7.17098 3.77185 7.25 3.97076 7.25ZM20.4708 17.75H3.97076C3.77185 17.75 3.58109 17.829 3.44043 17.9697C3.29978 18.1103 3.22076 18.3011 3.22076 18.5C3.22076 18.6989 3.29978 18.8897 3.44043 19.0303C3.58109 19.171 3.77185 19.25 3.97076 19.25H20.4708C20.6697 19.25 20.8604 19.171 21.0011 19.0303C21.1417 18.8897 21.2208 18.6989 21.2208 18.5C21.2208 18.3011 21.1417 18.1103 21.0011 17.9697C20.8604 17.829 20.6697 17.75 20.4708 17.75Z" fill="white"/>
</svg>
