<svg width="21" height="27" viewBox="0 0 21 27" fill="none" xmlns="http://www.w3.org/2000/svg">
<path d="M15.3426 0H20.2208V26.4732H15.3426V24.2393C13.9069 26.0796 11.8653 26.9997 9.21803 26.9997C7.98825 27.0103 6.77048 26.7572 5.64678 26.2574C4.52308 25.7577 3.51956 25.0229 2.70384 24.1025C0.901278 22.173 0 19.8093 0 17.0113C0 14.2132 0.901278 11.8505 2.70384 9.92299C3.52077 9.00295 4.5255 8.2688 5.65026 7.77005C6.77502 7.2713 7.99365 7.01954 9.22397 7.03176C11.8713 7.03176 13.9128 7.95187 15.3485 9.79211L15.3426 0ZM6.36547 20.8484C6.85741 21.3399 7.4448 21.7254 8.09143 21.9812C8.73805 22.2369 9.43022 22.3576 10.1253 22.3356C10.8181 22.3577 11.508 22.237 12.1522 21.9811C12.7965 21.7253 13.3812 21.3397 13.8702 20.8484C14.8183 19.7952 15.343 18.4283 15.343 17.0113C15.343 15.5942 14.8183 14.2273 13.8702 13.1741C13.3812 12.6828 12.7965 12.2972 12.1522 12.0414C11.508 11.7855 10.8181 11.6649 10.1253 11.6869C9.43028 11.6655 8.73827 11.7863 8.09172 12.0421C7.44517 12.2979 6.85772 12.6831 6.36547 13.1741C5.40477 14.2211 4.87176 15.5903 4.87176 17.0113C4.87176 18.4322 5.40477 19.8014 6.36547 20.8484Z" fill="#0070DF"/>
</svg>
