<svg width="25" height="24" viewBox="0 0 25 24" fill="none" xmlns="http://www.w3.org/2000/svg">
<path d="M15.5 5.25H6.5C6.10218 5.25 5.72064 5.40804 5.43934 5.68934C5.15804 5.97064 5 6.35218 5 6.75V21C5 21.1378 5.03796 21.2729 5.10972 21.3906C5.18149 21.5082 5.28428 21.6038 5.40681 21.6669C5.52934 21.7299 5.66688 21.758 5.80432 21.748C5.94177 21.7381 6.0738 21.6904 6.18594 21.6103L11 18.1716L15.815 21.6103C15.9271 21.6901 16.0591 21.7376 16.1964 21.7474C16.3337 21.7573 16.471 21.7291 16.5934 21.6661C16.7158 21.6031 16.8184 21.5076 16.8902 21.3901C16.9619 21.2726 16.9999 21.1377 17 21V6.75C17 6.35218 16.842 5.97064 16.5607 5.68934C16.2794 5.40804 15.8978 5.25 15.5 5.25ZM15.5 19.5431L11.435 16.6369C11.3078 16.546 11.1554 16.4972 10.9991 16.4972C10.8427 16.4972 10.6903 16.546 10.5631 16.6369L6.5 19.5422V6.75H15.5V19.5431ZM20 3.75V18C20 18.1989 19.921 18.3897 19.7803 18.5303C19.6397 18.671 19.4489 18.75 19.25 18.75C19.0511 18.75 18.8603 18.671 18.7197 18.5303C18.579 18.3897 18.5 18.1989 18.5 18V3.75H8.75C8.55109 3.75 8.36032 3.67098 8.21967 3.53033C8.07902 3.38968 8 3.19891 8 3C8 2.80109 8.07902 2.61032 8.21967 2.46967C8.36032 2.32902 8.55109 2.25 8.75 2.25H18.5C18.8978 2.25 19.2794 2.40804 19.5607 2.68934C19.842 2.97064 20 3.35218 20 3.75Z" fill="#5D5D5D"/>
</svg>
