<svg width="25" height="24" viewBox="0 0 25 24" fill="none" xmlns="http://www.w3.org/2000/svg">
<g clip-path="url(#clip0_1582_129)">
<path d="M23.4 19.5H21.9V12.75L22.1194 12.9694C22.2604 13.1101 22.4515 13.1891 22.6507 13.1889C22.8499 13.1887 23.0409 13.1094 23.1816 12.9684C23.3223 12.8275 23.4013 12.6363 23.4011 12.4371C23.4009 12.2379 23.3216 12.047 23.1806 11.9062L13.9603 2.68875C13.6791 2.40766 13.2977 2.24976 12.9 2.24976C12.5024 2.24976 12.121 2.40766 11.8397 2.68875L2.6194 11.9062C2.47879 12.047 2.39985 12.2378 2.39994 12.4367C2.40003 12.6357 2.47914 12.8264 2.61987 12.967C2.7606 13.1076 2.95142 13.1866 3.15036 13.1865C3.34929 13.1864 3.54004 13.1073 3.68065 12.9666L3.90002 12.75V19.5H2.40002C2.20111 19.5 2.01035 19.579 1.86969 19.7197C1.72904 19.8603 1.65002 20.0511 1.65002 20.25C1.65002 20.4489 1.72904 20.6397 1.86969 20.7803C2.01035 20.921 2.20111 21 2.40002 21H23.4C23.5989 21 23.7897 20.921 23.9304 20.7803C24.071 20.6397 24.15 20.4489 24.15 20.25C24.15 20.0511 24.071 19.8603 23.9304 19.7197C23.7897 19.579 23.5989 19.5 23.4 19.5ZM5.40002 11.25L12.9 3.75L20.4 11.25V19.5H15.9V14.25C15.9 14.0511 15.821 13.8603 15.6804 13.7197C15.5397 13.579 15.3489 13.5 15.15 13.5H10.65C10.4511 13.5 10.2603 13.579 10.1197 13.7197C9.97904 13.8603 9.90002 14.0511 9.90002 14.25V19.5H5.40002V11.25ZM14.4 19.5H11.4V15H14.4V19.5Z" fill="#5D5D5D"/>
</g>
<defs>
<clipPath id="clip0_1582_129">
<rect width="24" height="24" fill="white" transform="translate(0.900024)"/>
</clipPath>
</defs>
</svg>
