<svg width="25" height="24" viewBox="0 0 25 24" fill="none" xmlns="http://www.w3.org/2000/svg">
<path d="M21.7 18.75H20.95V3.75C20.95 3.55109 20.871 3.36032 20.7303 3.21967C20.5897 3.07902 20.3989 3 20.2 3H14.95C14.7511 3 14.5603 3.07902 14.4197 3.21967C14.279 3.36032 14.2 3.55109 14.2 3.75V7.5H9.70001C9.5011 7.5 9.31033 7.57902 9.16968 7.71967C9.02903 7.86032 8.95001 8.05109 8.95001 8.25V12H5.20001C5.0011 12 4.81033 12.079 4.66968 12.2197C4.52903 12.3603 4.45001 12.5511 4.45001 12.75V18.75H3.70001C3.5011 18.75 3.31033 18.829 3.16968 18.9697C3.02903 19.1103 2.95001 19.3011 2.95001 19.5C2.95001 19.6989 3.02903 19.8897 3.16968 20.0303C3.31033 20.171 3.5011 20.25 3.70001 20.25H21.7C21.8989 20.25 22.0897 20.171 22.2303 20.0303C22.371 19.8897 22.45 19.6989 22.45 19.5C22.45 19.3011 22.371 19.1103 22.2303 18.9697C22.0897 18.829 21.8989 18.75 21.7 18.75ZM15.7 4.5H19.45V18.75H15.7V4.5ZM10.45 9H14.2V18.75H10.45V9ZM5.95001 13.5H8.95001V18.75H5.95001V13.5Z" fill="#5D5D5D"/>
</svg>
