<svg width="47" height="49" viewBox="0 0 47 49" fill="none" xmlns="http://www.w3.org/2000/svg">
<path d="M2.593 28.8968L0.5 27.411L11.3844 9.88407L18.7717 18.5731L28.5235 2.62634L35.9114 13.7844L44.5056 0L46.5 1.53524L35.9409 18.4794L28.6169 7.3861L19.1315 22.8932L11.7289 14.1894L2.593 28.8968ZM31.5288 41.0767C33.5836 41.0767 35.3202 40.3655 36.7386 38.9432C38.157 37.521 38.8662 35.7797 38.8662 33.7194C38.8662 31.6596 38.1568 29.9188 36.738 28.4969C35.3192 27.0751 33.5821 26.3641 31.5269 26.3641C29.4721 26.3641 27.7355 27.0753 26.3171 28.4976C24.8988 29.9198 24.1896 31.6611 24.1896 33.7214C24.1896 35.7812 24.899 37.522 26.3178 38.9439C27.7366 40.3657 29.4736 41.0767 31.5288 41.0767ZM44.7367 48.7785L37.5268 41.5503C36.6962 42.2152 35.7744 42.7304 34.7615 43.0958C33.7482 43.4612 32.6704 43.6439 31.5282 43.6439C28.7781 43.6439 26.4407 42.6799 24.5161 40.7519C22.591 38.8243 21.6285 36.4833 21.6285 33.7291C21.6285 30.9748 22.5902 28.6309 24.5135 26.6973C26.4364 24.7637 28.7717 23.7969 31.5192 23.7969C34.2668 23.7969 36.605 24.7617 38.5339 26.6915C40.4628 28.6208 41.4272 30.9637 41.4272 33.7201C41.4272 34.8655 41.245 35.9543 40.8805 36.9863C40.5159 38.0179 40.0022 38.9503 39.3394 39.7834L46.5 47.0109L44.7367 48.7785Z" fill="#B0B0B0"/>
</svg>
