<svg width="14" height="13" viewBox="0 0 14 13" fill="none" xmlns="http://www.w3.org/2000/svg">
<path d="M13.75 6.50004C13.75 6.64922 13.6907 6.7923 13.5852 6.89779C13.4797 7.00328 13.3367 7.06254 13.1875 7.06254H2.17022L6.27295 11.1646C6.32522 11.2168 6.36667 11.2789 6.39496 11.3472C6.42324 11.4154 6.4378 11.4886 6.4378 11.5625C6.4378 11.6364 6.42324 11.7096 6.39496 11.7779C6.36667 11.8462 6.32522 11.9082 6.27295 11.9605C6.22069 12.0128 6.15865 12.0542 6.09036 12.0825C6.02208 12.1108 5.94889 12.1254 5.87498 12.1254C5.80107 12.1254 5.72789 12.1108 5.65961 12.0825C5.59132 12.0542 5.52928 12.0128 5.47702 11.9605L0.414516 6.89801C0.362217 6.84577 0.320727 6.78373 0.29242 6.71544C0.264112 6.64716 0.249542 6.57396 0.249542 6.50004C0.249542 6.42612 0.264112 6.35292 0.29242 6.28463C0.320727 6.21635 0.362217 6.15431 0.414516 6.10207L5.47702 1.03957C5.58256 0.934021 5.72572 0.874725 5.87498 0.874725C6.02425 0.874725 6.16741 0.934021 6.27295 1.03957C6.3785 1.14512 6.4378 1.28827 6.4378 1.43754C6.4378 1.58681 6.3785 1.72996 6.27295 1.83551L2.17022 5.93754H13.1875C13.3367 5.93754 13.4797 5.9968 13.5852 6.10229C13.6907 6.20778 13.75 6.35085 13.75 6.50004Z" fill="#0070DF"/>
</svg>
